<svg width="42" height="42" viewBox="0 0 42 42" fill="none" xmlns="http://www.w3.org/2000/svg">
<path fill-rule="evenodd" clip-rule="evenodd" d="M38.6159 21.7409L35.9545 19.0795C35.7436 18.8685 35.625 18.5824 35.625 18.284V15.0281C35.625 12.0192 35.3118 10.9281 34.7235 9.82815C34.1352 8.72815 33.2719 7.86486 32.1719 7.27657C31.0719 6.68829 29.9808 6.375 26.9719 6.375H22.6682C22.544 6.375 22.4432 6.27426 22.4432 6.15C22.4432 6.09033 22.4669 6.0331 22.5091 5.9909L25.1705 3.3295C25.3815 3.11853 25.6677 3 25.966 3L27.4626 3C31.4744 3 32.9292 3.41772 34.3958 4.2021C35.8625 4.98648 37.0136 6.13753 37.7979 7.60419C38.5823 9.07086 39 10.5256 39 14.5375V21.5818C39 21.7061 38.8993 21.8068 38.775 21.8068C38.7154 21.8068 38.6581 21.7831 38.6159 21.7409Z" fill="#E55737"/>
<path fill-rule="evenodd" clip-rule="evenodd" d="M20.2591 38.6159L22.9205 35.9545C23.1315 35.7436 23.4177 35.625 23.716 35.625H26.9719C29.9808 35.625 31.0719 35.3118 32.1719 34.7235C33.2719 34.1352 34.1352 33.2719 34.7235 32.1719C35.3118 31.0719 35.625 29.9808 35.625 26.9719V22.6682C35.625 22.544 35.7258 22.4432 35.85 22.4432C35.9097 22.4432 35.9669 22.4669 36.0091 22.5091L38.6705 25.1705C38.8815 25.3815 39 25.6677 39 25.966V27.4626C39 31.4744 38.5823 32.9292 37.7979 34.3958C37.0136 35.8625 35.8625 37.0136 34.3958 37.7979C32.9292 38.5823 31.4744 39 27.4626 39H20.4182C20.294 39 20.1932 38.8993 20.1932 38.775C20.1932 38.7154 20.2169 38.6581 20.2591 38.6159Z" fill="#F6C943"/>
<path fill-rule="evenodd" clip-rule="evenodd" d="M3.3841 20.2591L6.0455 22.9205C6.25647 23.1315 6.375 23.4177 6.375 23.716V26.9719C6.375 29.9808 6.68829 31.0719 7.27657 32.1719C7.86486 33.2719 8.72815 34.1352 9.82815 34.7235C10.9281 35.3118 12.0192 35.625 15.0281 35.625H19.3318C19.4561 35.625 19.5568 35.7258 19.5568 35.85C19.5568 35.9097 19.5331 35.9669 19.4909 36.0091L16.8295 38.6705C16.6185 38.8815 16.3324 39 16.034 39H14.5375C10.5256 39 9.07086 38.5823 7.60419 37.7979C6.13753 37.0136 4.98648 35.8625 4.2021 34.3958C3.41772 32.9292 3 31.4744 3 27.4626V20.4182C3 20.294 3.10074 20.1932 3.225 20.1932C3.28467 20.1932 3.3419 20.2169 3.3841 20.2591Z" fill="#7B8FEC"/>
<path fill-rule="evenodd" clip-rule="evenodd" d="M21.7409 3.3841L19.0795 6.0455C18.8685 6.25647 18.5824 6.375 18.284 6.375H15.0281C12.0192 6.375 10.9281 6.68829 9.82815 7.27657C8.72815 7.86486 7.86486 8.72815 7.27657 9.82815C6.68829 10.9281 6.375 12.0192 6.375 15.0281V19.3318C6.375 19.4561 6.27426 19.5568 6.15 19.5568C6.09033 19.5568 6.0331 19.5331 5.9909 19.4909L3.3295 16.8295C3.11853 16.6185 3 16.3324 3 16.034L3 14.5375C3 10.5256 3.41772 9.07086 4.2021 7.60419C4.98648 6.13753 6.13753 4.98648 7.60419 4.2021C9.07086 3.41772 10.5256 3 14.5375 3L21.5818 3C21.7061 3 21.8068 3.10074 21.8068 3.225C21.8068 3.28467 21.7831 3.3419 21.7409 3.3841Z" fill="#D77EE9"/>
<path fill-rule="evenodd" clip-rule="evenodd" d="M32.9945 16.1364L29.3655 12.668C29.1255 12.4281 28.8448 12.2536 28.5456 12.1447C28.2983 12.0512 28.0301 12 27.75 12H17.0407C16.9164 12 16.8157 11.8993 16.8157 11.775C16.8157 11.7153 16.8394 11.658 16.8816 11.6158L19.5455 8.95417C19.7565 8.7434 20.0425 8.625 20.3407 8.625H28.875C31.3603 8.625 33.375 10.6397 33.375 13.125V15.9737C33.375 16.098 33.2743 16.1987 33.15 16.1987C33.0921 16.1987 33.0364 16.1764 32.9945 16.1364Z" fill="#E55737"/>
<path fill-rule="evenodd" clip-rule="evenodd" d="M25.8636 32.9973L29.332 29.3683C29.5719 29.1283 29.7464 28.8476 29.8553 28.5485C29.9488 28.3011 30 28.0329 30 27.7528V17.0435C30 16.9192 30.1007 16.8185 30.225 16.8185C30.2847 16.8185 30.342 16.8422 30.3842 16.8844L33.0458 19.5484C33.2566 19.7593 33.375 20.0453 33.375 20.3435V28.8778C33.375 31.3631 31.3603 33.3778 28.875 33.3778H26.0263C25.902 33.3778 25.8013 33.2771 25.8013 33.1528C25.8013 33.0949 25.8236 33.0392 25.8636 32.9973Z" fill="#F6C943"/>
<path fill-rule="evenodd" clip-rule="evenodd" d="M9.00546 25.8636L12.6345 29.332C12.8745 29.5719 13.1552 29.7464 13.4543 29.8553C13.7017 29.9488 13.9699 30 14.25 30H24.9593C25.0836 30 25.1843 30.1007 25.1843 30.225C25.1843 30.2847 25.1606 30.342 25.1184 30.3842L22.4544 33.0458C22.2435 33.2566 21.9575 33.375 21.6593 33.375H13.125C10.6397 33.375 8.625 31.3603 8.625 28.875V26.0263C8.625 25.902 8.72574 25.8013 8.85 25.8013C8.90791 25.8013 8.96359 25.8236 9.00546 25.8636Z" fill="#7B8FEC"/>
<path fill-rule="evenodd" clip-rule="evenodd" d="M16.1364 9.00546L12.668 12.6345C12.4281 12.8745 12.2536 13.1552 12.1447 13.4543C12.0512 13.7017 12 13.9699 12 14.25V24.9593C12 25.0836 11.8993 25.1843 11.775 25.1843C11.7153 25.1843 11.658 25.1606 11.6158 25.1184L8.95417 22.4544C8.7434 22.2435 8.625 21.9575 8.625 21.6593V13.125C8.625 10.6397 10.6397 8.625 13.125 8.625H15.9737C16.098 8.625 16.1987 8.72574 16.1987 8.85C16.1987 8.90791 16.1764 8.96359 16.1364 9.00546Z" fill="#D77EE9"/>
</svg>
